<svg width="72" height="26" viewBox="0 0 72 26" fill="none" xmlns="http://www.w3.org/2000/svg">
<path fill-rule="evenodd" clip-rule="evenodd" d="M0 1.46875C0 0.982586 0.394116 0.58847 0.880282 0.58847H70.2465C70.7326 0.58847 71.1268 0.982586 71.1268 1.46875V24.7082C71.1268 25.1944 70.7326 25.5885 70.2465 25.5885H0.880283C0.394116 25.5885 0 25.1944 0 24.7082V1.46875ZM69.8566 2.52509C69.8566 2.03892 69.4625 1.64481 68.9764 1.64481H2.1504C1.66424 1.64481 1.27012 2.03892 1.27012 2.52509V23.6519C1.27012 24.138 1.66424 24.5321 2.1504 24.5321H68.9764C69.4625 24.5321 69.8566 24.138 69.8566 23.6519V2.52509Z" fill="url(#paint0_radial_1_19)"/>
<path fill-rule="evenodd" clip-rule="evenodd" d="M24.6631 6.17915C25.1377 5.72054 25.9295 5.92805 26.1182 6.5605L26.5046 7.85515C26.6809 8.4463 27.4592 8.57751 27.8197 8.07687C28.1422 7.62893 28.8232 7.67652 29.0803 8.16497L31.162 12.1202L31.9367 13.6051C32.1062 13.9299 32.0568 14.3256 31.8127 14.5988L29.3561 17.3479C28.9873 17.7605 28.3097 17.6153 28.1425 17.0878C27.9245 16.4005 26.9414 16.4322 26.7681 17.1321L26.0954 19.8499C25.8709 20.7569 24.5743 20.7355 24.3799 19.8216L24.1346 18.6689C23.9448 17.7767 22.6901 17.7267 22.4299 18.601L21.6983 21.0592C21.4949 21.7425 20.606 21.9132 20.1639 21.3539L17.806 18.3703C17.3951 17.8505 16.5789 17.9538 16.3105 18.5596L16.1384 18.9481C15.8584 19.5802 14.9924 19.6575 14.6047 19.0851L12.2802 15.6524C12.0112 15.2552 11.4737 15.1465 11.0715 15.4079L10.3142 15.9003C10.0064 16.1003 9.60892 16.0892 9.3236 15.8582C8.19908 14.9478 5.43324 12.5219 4.75356 10.1836C4.59997 9.65515 4.51258 8.99245 4.46313 8.3796C4.40411 7.64817 5.23371 7.25211 5.80274 7.71546L9.90479 11.0557C10.2723 11.3549 10.8107 11.3095 11.1229 10.953L14.576 7.00895C15.0024 6.52193 15.7909 6.64621 16.0468 7.24076L17.0324 9.53031C17.3537 10.2766 18.4283 10.2264 18.6785 9.45332L19.6299 6.51375C19.8302 5.89468 20.6098 5.69945 21.0783 6.15103L22.2757 7.30526C22.617 7.63421 23.1574 7.63389 23.4983 7.30454L24.6631 6.17915ZM30.7206 14.6353C30.9822 14.3446 31.0207 13.9162 30.815 13.5836L28.7083 10.1755C28.4329 9.73016 27.8142 9.65815 27.444 10.0284C27.0595 10.4128 26.4132 10.318 26.1554 9.83927L25.3018 8.25399C25.049 7.78452 24.4402 7.6458 24.009 7.95942L23.3734 8.42162C23.0803 8.63481 22.6864 8.64653 22.3811 8.45114L21.5896 7.94456C21.1222 7.64542 20.498 7.84813 20.2955 8.3648L18.9451 11.8108C18.654 12.5534 17.6044 12.5571 17.3081 11.8165L16.2119 9.07593C15.9656 8.4601 15.1525 8.32758 14.7234 8.83333L11.2169 12.966C10.9407 13.2915 10.4708 13.3719 10.1021 13.1568L8.67162 12.3224C8.64182 12.305 8.61031 12.2907 8.57758 12.2798C8.04938 12.1038 7.67088 12.7914 8.10219 13.1435L9.95211 14.6536C10.1703 14.8317 10.4605 14.8947 10.7328 14.823L11.3451 14.6619C11.7179 14.5638 12.1111 14.7196 12.3155 15.0464L14.3965 18.374C14.8083 19.0325 15.8089 18.8739 15.997 18.1205L16.3895 16.5479C16.579 15.7886 17.5911 15.6356 17.9965 16.3051L19.6493 19.0341C20.0462 19.6895 21.0328 19.5601 21.2473 18.8246L22.5738 14.2768C22.8415 13.3589 24.1748 13.466 24.2925 14.4149L24.5366 16.3831C24.6586 17.3672 26.0618 17.4296 26.2707 16.4603L26.5933 14.9636C26.7888 14.0561 28.0742 14.0302 28.3061 14.9291L28.3755 15.198C28.5509 15.8777 29.4125 16.0887 29.8822 15.5669L30.7206 14.6353Z" fill="url(#paint1_linear_1_19)"/>
<path fill-rule="evenodd" clip-rule="evenodd" d="M64.5298 6.3541C64.8682 6.12016 65.3361 6.29674 65.4355 6.69593C65.4724 6.84386 65.4504 7.00032 65.3742 7.13237L63.3873 10.5757L62.0405 12.7511C61.6487 13.384 60.869 13.6589 60.1669 13.4116L59.2714 13.0961C58.7257 12.9039 58.1195 13.0237 57.6645 13.3811C56.2614 14.4829 53.0843 16.694 50.5779 16.3375C49.0686 16.1229 47.3757 14.9165 46.2853 14.0087C45.6237 13.4578 44.6372 13.4417 44.0098 14.0313L42.7411 15.2235C42.0537 15.8694 40.9578 15.7755 40.3903 15.0221L40.1521 14.7058C39.5831 13.9503 39.7984 12.8677 40.6133 12.3874L40.9116 12.2116C40.9219 12.2056 40.9313 12.2002 40.9417 12.1944C41.1092 12.1012 42.6713 11.2365 43.75 10.7998C45.7757 9.97973 46.9909 9.32605 49.1742 9.42333C50.3945 9.4777 51.9519 10.0527 52.9534 10.4789C53.567 10.74 54.2867 10.6365 54.7724 10.1796L55.7012 9.30584C56.2962 8.74602 57.2429 8.81514 57.7503 9.45548C58.2068 10.0316 59.0321 10.1546 59.6368 9.73658L64.5298 6.3541ZM62.7553 9.72706C62.8144 9.33913 62.5578 8.97339 62.1729 8.89698C61.9946 8.86159 61.8095 8.89365 61.6534 8.98696L59.414 10.3263C58.8273 10.6772 58.071 10.5353 57.6514 9.9957C57.1251 9.31897 56.1101 9.29604 55.5538 9.94832L54.539 11.1382C53.9245 11.8587 52.8132 11.886 52.0795 11.2873C51.2603 10.6189 50.1735 9.88718 49.1742 9.71142C47.0392 9.33593 45.7852 10.2874 43.8381 11.2399C43.0918 11.605 42.0518 12.2726 41.7824 12.4477C41.7381 12.4765 41.6962 12.5076 41.6554 12.5413L41.4022 12.7506C41.0219 13.0649 40.9106 13.601 41.1343 14.0407C41.4357 14.633 42.2034 14.8019 42.7255 14.3907L44.1622 13.2593C44.7354 12.808 45.5425 12.8052 46.1499 13.2092C47.2543 13.9437 49.0671 15.0022 50.5779 15.1852C53.1791 15.5002 56.6608 13.4352 57.913 12.6226C58.2233 12.4213 58.5883 12.319 58.9572 12.3461L60.0744 12.4279C60.6086 12.4671 61.1264 12.2337 61.4509 11.8075L62.5367 10.3813C62.6343 10.2531 62.6982 10.1025 62.7224 9.9432L62.7553 9.72706Z" fill="url(#paint2_linear_1_19)"/>
<path fill-rule="evenodd" clip-rule="evenodd" d="M31.6303 11.8759L32.405 13.3607C32.6761 13.8804 32.5971 14.5137 32.2065 14.9507L29.7499 17.6998C29.1086 18.4175 27.9299 18.1649 27.639 17.2474C27.6212 17.1911 27.5941 17.1635 27.5695 17.1473C27.5409 17.1285 27.501 17.1161 27.4556 17.1176C27.4101 17.1191 27.3711 17.1339 27.3438 17.1546C27.3203 17.1723 27.295 17.2016 27.2808 17.259L26.6081 19.9768C26.2489 21.428 24.1744 21.3937 23.8633 19.9315L23.618 18.7788C23.5421 18.4219 23.0402 18.4019 22.9361 18.7516L22.2045 21.2098C21.8791 22.3031 20.4569 22.5763 19.7496 21.6813L17.3916 18.6978C17.2273 18.4899 16.9008 18.5312 16.7934 18.7735L16.6213 19.162C16.1733 20.1734 14.7876 20.2971 14.1674 19.3812L11.8429 15.9485C11.7353 15.7896 11.5203 15.7461 11.3594 15.8507L10.6021 16.3431C10.1125 16.6613 9.46371 16.6512 8.99126 16.2687C8.41776 15.8043 7.42242 14.9512 6.48028 13.9109C5.54799 12.8814 4.62042 11.6177 4.24639 10.331C4.07784 9.75108 3.98706 9.04643 3.93668 8.42206C3.83605 7.17488 5.24765 6.58231 6.13625 7.30588L10.2383 10.6461C10.3853 10.7658 10.6007 10.7476 10.7256 10.605L14.1786 6.66101C14.8608 5.88178 16.1225 6.08062 16.532 7.03191L17.5176 9.32146C17.6461 9.61998 18.0759 9.59988 18.176 9.29066L19.1274 6.35109C19.4479 5.36058 20.6953 5.04822 21.4448 5.77074L22.6423 6.92497C22.7788 7.05655 22.995 7.05642 23.1313 6.92468L24.2961 5.79929C25.0555 5.06552 26.3224 5.39753 26.6244 6.40946L27.0107 7.7041C27.0617 7.87509 27.2868 7.91304 27.3911 7.76823C27.9428 7.00191 29.1079 7.08334 29.5477 7.91895L31.6303 11.8759ZM63.8407 10.8467L62.4896 13.0291C61.9671 13.873 60.9277 14.2394 59.9915 13.9097L59.096 13.5943C58.7335 13.4666 58.3148 13.5419 57.9907 13.7964C57.2755 14.3581 56.0994 15.2098 54.7725 15.8779C53.462 16.5377 51.9204 17.0619 50.5036 16.8604C49.6502 16.7391 48.7804 16.3452 48.0059 15.8878C47.2251 15.4266 46.5055 14.8792 45.9474 14.4145C45.4702 14.0173 44.7856 14.0271 44.3715 14.4162L43.1028 15.6084C42.1863 16.4696 40.7251 16.3444 39.9685 15.3398L39.7302 15.0235C38.9715 14.0162 39.2586 12.5727 40.3452 11.9324L40.6435 11.7566C40.6568 11.7487 40.6701 11.7411 40.6849 11.7328C40.8475 11.6424 42.4379 10.7611 43.5519 10.3102C43.8066 10.207 44.0507 10.1054 44.2875 10.0068C45.8975 9.33622 47.1721 8.8054 49.1977 8.89566C50.5228 8.9547 52.1584 9.56654 53.1603 9.99286C53.5959 10.1782 54.089 10.0974 54.4105 9.79489L55.3393 8.92113C56.1596 8.14934 57.4647 8.24464 58.1643 9.12743C58.4479 9.48542 58.9608 9.56183 59.3365 9.30209L64.2295 5.91961C64.8716 5.47573 65.7593 5.81077 65.9481 6.5682C66.018 6.84889 65.9763 7.14576 65.8317 7.39632L63.8407 10.8467ZM16.3895 16.5479C16.579 15.7885 17.5911 15.6356 17.9965 16.3051L19.6493 19.0341C20.0462 19.6894 21.0328 19.5601 21.2474 18.8246L22.5738 14.2767C22.8415 13.3588 24.1748 13.466 24.2925 14.4149L24.5366 16.3831C24.6587 17.3672 26.0618 17.4295 26.2707 16.4602L26.5933 14.9636C26.7888 14.0561 28.0742 14.0302 28.3061 14.9291L28.3755 15.1979C28.551 15.8777 29.4125 16.0887 29.8822 15.5668L30.7206 14.6353C30.9822 14.3446 31.0207 13.9162 30.8151 13.5835L28.7083 10.1755C28.433 9.73014 27.8142 9.65813 27.444 10.0284C27.0595 10.4128 26.4132 10.318 26.1554 9.83925L25.3018 8.25397C25.049 7.7845 24.4402 7.64578 24.009 7.95939L23.3734 8.4216C23.0803 8.63479 22.6865 8.6465 22.3812 8.45112L21.5896 7.94453C21.1222 7.64539 20.498 7.8481 20.2955 8.36478L18.9451 11.8107C18.654 12.5534 17.6044 12.5571 17.3082 11.8165L16.2119 9.0759C15.9656 8.46007 15.1525 8.32756 14.7234 8.83331L11.2169 12.966C10.9407 13.2915 10.4708 13.3719 10.1021 13.1568L8.67163 12.3224C8.64183 12.305 8.61032 12.2907 8.57759 12.2798C8.04939 12.1037 7.67089 12.7914 8.1022 13.1435L9.95212 14.6536C10.1703 14.8317 10.4605 14.8947 10.7328 14.823L11.3451 14.6619C11.6531 14.5808 11.9749 14.6731 12.1928 14.8918C12.2387 14.9379 12.28 14.9895 12.3155 15.0464L14.3965 18.374C14.5516 18.622 14.7902 18.7541 15.0375 18.7822C15.2844 18.8102 15.54 18.7345 15.7296 18.5669C15.7915 18.5122 15.8463 18.4477 15.8915 18.3739C15.9375 18.299 15.9735 18.2143 15.997 18.1204L16.3895 16.5479ZM16.4997 18.2854C16.423 18.3605 16.3581 18.4522 16.3105 18.5596L16.1384 18.948C15.8931 19.5017 15.1982 19.6298 14.7691 19.2683C14.7083 19.2171 14.6528 19.1561 14.6047 19.0851L12.2802 15.6524C12.1759 15.4983 12.0312 15.3877 11.8697 15.3252C11.8685 15.3247 11.8672 15.3242 11.866 15.3238C11.6118 15.2267 11.3166 15.2486 11.0715 15.4079L10.3142 15.9002C10.0064 16.1003 9.60893 16.0892 9.32361 15.8582C8.19909 14.9477 5.43325 12.5219 4.75357 10.1835C4.59998 9.65513 4.51259 8.99243 4.46314 8.37958C4.40412 7.64814 5.23372 7.25209 5.80275 7.71544L9.9048 11.0557C10.2723 11.3549 10.8108 11.3095 11.1229 10.9529L14.576 7.00893C15.0024 6.52191 15.7909 6.64618 16.0469 7.24074L17.0324 9.53028C17.3537 10.2766 18.4283 10.2263 18.6785 9.4533L19.6299 6.51373C19.8302 5.89466 20.6098 5.69943 21.0783 6.15101L22.2757 7.30524C22.617 7.63419 23.1574 7.63387 23.4983 7.30452L24.6631 6.17913C25.1377 5.72052 25.9295 5.92803 26.1183 6.56048L26.5046 7.85512C26.681 8.44628 27.4592 8.57749 27.8197 8.07685C28.1422 7.6289 28.8233 7.6765 29.0803 8.16495L31.162 12.1202L31.9367 13.605C32.1062 13.9298 32.0568 14.3256 31.8127 14.5988L29.3561 17.3479C28.9873 17.7605 28.3097 17.6153 28.1425 17.0878C27.9246 16.4005 26.9414 16.4321 26.7681 17.132L26.0954 19.8499C25.8709 20.7569 24.5743 20.7355 24.3799 19.8216L24.1346 18.6688C23.9448 17.7766 22.6901 17.7266 22.4299 18.6009L21.6983 21.0591C21.4949 21.7425 20.606 21.9132 20.164 21.3539L17.806 18.3703C17.468 17.9427 16.8557 17.9367 16.4997 18.2854ZM8.70303 12.9521L10.2861 14.2445C10.3734 14.3157 10.4895 14.3409 10.5984 14.3122L11.2107 14.1511C11.8071 13.9941 12.4363 14.2435 12.7633 14.7663L14.8443 18.094C15.0091 18.3573 15.4093 18.2939 15.4845 17.9925L15.8771 16.42C16.1803 15.205 17.7996 14.9603 18.4483 16.0315L20.1011 18.7605C20.2599 19.0226 20.6545 18.9709 20.7403 18.6767L22.0668 14.1288C22.4951 12.6602 24.6283 12.8316 24.8166 14.3498L25.0608 16.3181C25.1096 16.7117 25.6708 16.7367 25.7544 16.349L26.077 14.8523C26.3899 13.4003 28.4464 13.3589 28.8176 14.7971L28.8869 15.066C28.9571 15.3379 29.3018 15.4223 29.4896 15.2135L30.328 14.282C30.4327 14.1657 30.4481 13.9943 30.3658 13.8613L28.259 10.4532C28.1629 10.2977 27.9467 10.2725 27.8174 10.4018C27.1828 11.0365 26.1159 10.8799 25.6904 10.0897L24.8368 8.50437C24.7356 8.31658 24.4921 8.2611 24.3196 8.38654L23.6841 8.84875C23.2151 9.18985 22.5849 9.2086 22.0964 8.89598L21.3049 8.38939C21.118 8.26974 20.8683 8.35082 20.7873 8.55749L19.4368 12.0035C18.9712 13.1917 17.2917 13.1976 16.8178 12.0126L15.7215 9.27206C15.623 9.02573 15.2978 8.97272 15.1261 9.17502L11.6196 13.3077C11.1778 13.8285 10.4259 13.9572 9.83599 13.613L8.70303 12.9521ZM62.2003 9.86367L62.2332 9.64753C62.2497 9.53887 62.1779 9.43642 62.07 9.41502C62.0201 9.40511 61.9683 9.41409 61.9246 9.44022L59.6851 10.7796C58.8694 11.2674 57.818 11.0702 57.2345 10.3199C56.9136 9.90736 56.2949 9.89338 55.9557 10.291L54.9409 11.4809C54.1145 12.4498 52.6701 12.4509 51.7456 11.6965C50.9332 11.0337 49.9375 10.3819 49.0827 10.2316C47.4941 9.95218 46.4998 10.4668 45.0479 11.2183C44.7451 11.375 44.4224 11.542 44.0702 11.7143C43.3571 12.0631 42.3431 12.7133 42.0702 12.8906C42.044 12.9076 42.0183 12.9265 41.9919 12.9483L41.7387 13.1577C41.549 13.3145 41.4935 13.5818 41.6051 13.8012C41.7554 14.0966 42.1383 14.1808 42.3987 13.9758L43.8355 12.8443C44.6022 12.2405 45.6604 12.2493 46.4424 12.7694C46.9829 13.1288 47.6908 13.5635 48.4425 13.929C49.2006 14.2976 49.9705 14.5795 50.6414 14.6608C51.7996 14.8011 53.2137 14.4101 54.5436 13.8411C55.8571 13.2792 57.0124 12.5774 57.6256 12.1795C58.0253 11.9202 58.5037 11.7832 58.9958 11.8193L60.113 11.9011C60.4691 11.9272 60.8144 11.7716 61.0307 11.4875L62.1165 10.0613C62.1605 10.0035 62.1893 9.93553 62.2003 9.86367ZM59.6368 9.73655C59.4955 9.83425 59.3421 9.90239 59.1842 9.94211C59.0643 9.97227 58.9418 9.98604 58.8199 9.9839C58.6386 9.98071 58.4588 9.9423 58.2914 9.8703C58.1947 9.82871 58.1022 9.77593 58.0158 9.71225C57.9184 9.64038 57.8289 9.55463 57.7503 9.45546C57.6295 9.30295 57.4837 9.18284 57.3237 9.09592C57.0294 8.93605 56.6871 8.88842 56.363 8.95786C56.1234 9.0092 55.8939 9.12453 55.7012 9.30582L54.7724 10.1796C54.6804 10.2662 54.5799 10.3401 54.4734 10.4012C54.0178 10.6626 53.4508 10.6905 52.9535 10.4789C52.3125 10.2061 51.4439 9.87243 50.5817 9.65325C50.1151 9.53463 49.6502 9.44954 49.2244 9.42582C49.2076 9.42489 49.1909 9.42405 49.1742 9.4233C47.2722 9.33856 46.1049 9.82375 44.4964 10.4924C44.2585 10.5912 44.011 10.6941 43.7501 10.7997C43.7152 10.8138 43.6799 10.8284 43.6441 10.8433C43.2966 10.9886 42.9076 11.1721 42.5349 11.3569C41.7575 11.7423 41.0513 12.1334 40.9417 12.1944C40.9313 12.2001 40.9219 12.2056 40.9117 12.2116L40.6133 12.3874C39.7984 12.8677 39.5831 13.9502 40.1521 14.7058L40.3904 15.0221C40.9578 15.7755 42.0538 15.8694 42.7411 15.2235L44.0098 14.0313C44.1107 13.9365 44.2209 13.8573 44.3375 13.7935C44.9461 13.4607 45.7301 13.5464 46.2853 14.0086C47.3757 14.9165 49.0686 16.1229 50.5779 16.3375C53.0122 16.6837 56.0792 14.608 57.539 13.4788C57.5823 13.4454 57.6241 13.4128 57.6645 13.381C57.7999 13.2747 57.9488 13.1893 58.1055 13.127C58.4751 12.98 58.8881 12.9611 59.2714 13.0961L60.1669 13.4115C60.8691 13.6588 61.6487 13.384 62.0405 12.7511L63.3874 10.5757L65.3742 7.13235C65.4504 7.0003 65.4724 6.84383 65.4356 6.6959C65.3361 6.29671 64.8682 6.12014 64.5298 6.35407L59.6368 9.73655ZM57.8593 12.6574C57.8777 12.6455 57.8956 12.6339 57.9131 12.6226C58.2233 12.4213 58.5884 12.319 58.9572 12.346L60.0744 12.4279C60.6086 12.467 61.1264 12.2336 61.4509 11.8075L62.5367 10.3813C62.6343 10.2531 62.6982 10.1025 62.7224 9.94318L62.7554 9.72704C62.8144 9.3391 62.5578 8.97336 62.1729 8.89696C61.9946 8.86156 61.8095 8.89363 61.6535 8.98693L59.414 10.3263C59.2356 10.4329 59.0417 10.494 58.8462 10.5123C58.5706 10.5381 58.2921 10.4786 58.0505 10.3414C57.8999 10.2558 57.7636 10.1399 57.6514 9.99568C57.5742 9.89637 57.4864 9.81115 57.3911 9.74007C57.2979 9.67054 57.1976 9.61455 57.0928 9.57216C56.8886 9.48957 56.6677 9.45859 56.4509 9.47967C56.2916 9.49515 56.1345 9.5387 55.9878 9.61051C55.8272 9.68914 55.6789 9.80166 55.5538 9.94829L54.539 11.1381C53.9245 11.8587 52.8132 11.886 52.0795 11.2873C51.5886 10.8867 51.0017 10.4635 50.395 10.1508C49.9893 9.94158 49.5747 9.78184 49.1742 9.7114C49.1699 9.71065 49.1657 9.70991 49.1614 9.70917C47.3915 9.40174 46.2269 10.0075 44.7661 10.7673C44.4941 10.9088 44.2117 11.0556 43.9133 11.2029C43.8883 11.2153 43.8633 11.2276 43.8381 11.2399C43.5144 11.3982 43.1354 11.6135 42.7881 11.8208C42.3346 12.0915 41.935 12.3486 41.7824 12.4477C41.7381 12.4765 41.6962 12.5075 41.6554 12.5412L41.4022 12.7506C41.0219 13.0649 40.9106 13.601 41.1343 14.0407C41.4357 14.633 42.2034 14.8019 42.7255 14.3907L44.1622 13.2593C44.7354 12.808 45.5425 12.8052 46.1499 13.2092C47.2544 13.9437 49.0671 15.0022 50.5779 15.1851C52.8034 15.4547 55.6734 13.982 57.2403 13.0421C57.2767 13.0203 57.3125 12.9987 57.3475 12.9774C57.542 12.8593 57.7141 12.751 57.8593 12.6574Z" fill="url(#paint3_linear_1_19)"/>
<defs>
<radialGradient id="paint0_radial_1_19" cx="0" cy="0" r="1" gradientUnits="userSpaceOnUse" gradientTransform="translate(38.0708 12.9628) rotate(0.161757) scale(44.4998 73.8291)">
<stop stop-color="#FF00C7"/>
<stop offset="1" stop-color="#5081FF"/>
</radialGradient>
<linearGradient id="paint1_linear_1_19" x1="0.161844" y1="13.7171" x2="74.0517" y2="13.7171" gradientUnits="userSpaceOnUse">
<stop stop-color="#5081FF"/>
<stop offset="1" stop-color="#FF00C7"/>
</linearGradient>
<linearGradient id="paint2_linear_1_19" x1="37.2235" y1="11.0988" x2="69.216" y2="11.0988" gradientUnits="userSpaceOnUse">
<stop stop-color="#FF00C7"/>
<stop offset="1" stop-color="#5081FF"/>
</linearGradient>
<linearGradient id="paint3_linear_1_19" x1="37.2235" y1="11.0988" x2="69.216" y2="11.0988" gradientUnits="userSpaceOnUse">
<stop stop-color="#FF00C7"/>
<stop offset="1" stop-color="#5081FF"/>
</linearGradient>
</defs>
</svg>
